<?xml version="1.0" encoding="UTF-8" standalone="no"?>
<!-- Created with Inkscape (http://www.inkscape.org/) -->

<svg
   width="1024"
   height="500"
   viewBox="0 0 270.93333 132.29167"
   version="1.1"
   id="svg1"
   inkscape:version="1.3 (0e150ed6c4, 2023-07-21)"
   sodipodi:docname="feature_graphic.svg"
   xml:space="preserve"
   xmlns:inkscape="http://www.inkscape.org/namespaces/inkscape"
   xmlns:sodipodi="http://sodipodi.sourceforge.net/DTD/sodipodi-0.dtd"
   xmlns="http://www.w3.org/2000/svg"
   xmlns:svg="http://www.w3.org/2000/svg"><sodipodi:namedview
     id="namedview1"
     pagecolor="#ffffff"
     bordercolor="#000000"
     borderopacity="0.25"
     inkscape:showpageshadow="2"
     inkscape:pageopacity="0.0"
     inkscape:pagecheckerboard="0"
     inkscape:deskcolor="#d1d1d1"
     inkscape:document-units="mm"
     inkscape:zoom="1.0567505"
     inkscape:cx="533.7116"
     inkscape:cy="137.21309"
     inkscape:window-width="1920"
     inkscape:window-height="1029"
     inkscape:window-x="0"
     inkscape:window-y="27"
     inkscape:window-maximized="1"
     inkscape:current-layer="g26"
     showguides="true"><sodipodi:guide
       position="31.574445,65.515802"
       orientation="0,-1"
       id="guide31"
       inkscape:locked="false" /><sodipodi:guide
       position="35.608027,86.124019"
       orientation="0,-1"
       id="guide32"
       inkscape:locked="false" /></sodipodi:namedview><defs
     id="defs1" /><g
     inkscape:label="Layer 1"
     inkscape:groupmode="layer"
     id="layer1"><path
       d="m -84.47564,159.18545 c -0.42346,0 -0.76993,0.34647 -0.76993,0.76993 v 15.39858 c 0,0.42346 0.34647,0.76993 0.76993,0.76993 h 15.39858 c 0.42345,0 0.76993,-0.34647 0.76993,-0.76993 v -15.39858 c 0,-0.42346 -0.34648,-0.76993 -0.76993,-0.76993 z m -3.07972,0.76993 c 0,-1.69865 1.38106,-3.07971 3.07972,-3.07971 h 15.39858 c 1.69866,0 3.07971,1.38106 3.07971,3.07971 v 15.39858 c 0,1.69866 -1.38105,3.07972 -3.07971,3.07972 h -15.39858 c -1.69866,0 -3.07972,-1.38106 -3.07972,-3.07972 z m 16.21663,5.43763 -6.15943,6.15943 c -0.45233,0.45233 -1.18376,0.45233 -1.63129,0 l -3.07971,-3.07972 c -0.45233,-0.45233 -0.45233,-1.18377 0,-1.63129 0.45233,-0.44752 1.18377,-0.45233 1.63129,0 l 2.26166,2.26167 5.34138,-5.34619 c 0.45234,-0.45234 1.18377,-0.45234 1.63129,0 0.44752,0.45233 0.45233,1.18376 0,1.63128 z"
       id="path1-2-9-3-7-6"
       style="fill:#1c5a78;fill-opacity:1;stroke-width:0.0481206" /><g
       id="g13"
       transform="translate(-405.60161,-20.882035)"><path
         style="fill:#853131;stroke:#000000;stroke-width:2;stroke-dasharray:none;stroke-opacity:1"
         d="m 252.03024,125.93246 -10.3228,10.19424"
         id="path12" /><path
         style="fill:#853131;stroke:#000000;stroke-width:2;stroke-dasharray:none;stroke-opacity:1"
         d="m 250.87064,126.63505 10.19424,10.3228"
         id="path13" /></g><g
       id="g15"
       transform="translate(-353.10627,-20.871847)"><path
         style="fill:#853131;stroke:#000000;stroke-width:2;stroke-dasharray:none;stroke-opacity:1"
         d="m 252.03024,125.93246 -10.3228,10.19424"
         id="path14" /><path
         style="fill:#853131;stroke:#000000;stroke-width:2;stroke-dasharray:none;stroke-opacity:1"
         d="m 250.87064,126.63505 10.19424,10.3228"
         id="path15" /></g><path
       d="m -54.01741,161.25677 c -0.42346,0 -0.76993,0.34647 -0.76993,0.76993 v 15.39858 c 0,0.42346 0.34647,0.76993 0.76993,0.76993 h 15.39858 c 0.42345,0 0.76993,-0.34647 0.76993,-0.76993 V 162.0267 c 0,-0.42346 -0.34648,-0.76993 -0.76993,-0.76993 z m -3.07971,0.76993 c 0,-1.69865 1.38105,-3.07971 3.07971,-3.07971 h 15.39858 c 1.69866,0 3.07971,1.38106 3.07971,3.07971 v 15.39858 c 0,1.69866 -1.38105,3.07972 -3.07971,3.07972 h -15.39858 c -1.69866,0 -3.07971,-1.38106 -3.07971,-3.07972 z m 16.21662,5.43762 -6.15943,6.15944 c -0.45233,0.45233 -1.18376,0.45233 -1.63129,0 l -3.07971,-3.07972 c -0.45233,-0.45233 -0.45233,-1.18377 0,-1.63129 0.45233,-0.44752 1.18377,-0.45233 1.63129,0 l 2.26166,2.26167 5.34138,-5.34619 c 0.45234,-0.45234 1.18377,-0.45234 1.63129,0 0.44752,0.45233 0.45233,1.18376 0,1.63128 z"
       id="path9"
       style="fill:#1c5a78;fill-opacity:1;stroke-width:0.0481206" /><ellipse
       style="fill:#853131;fill-opacity:0;stroke:#000000;stroke-width:2;stroke-dasharray:none;stroke-opacity:1"
       id="path11"
       cx="-123.81528"
       cy="-0.65800631"
       rx="63.266056"
       ry="62.708527" /><g
       id="g25"
       transform="translate(107.3376,182.87044)"><path
         style="fill:#853131;stroke:#000000;stroke-width:2;stroke-dasharray:none;stroke-opacity:1"
         d="m -16.973458,20.268822 v 28.32932"
         id="path1" /><path
         style="fill:#853131;stroke:#000000;stroke-width:2;stroke-dasharray:none;stroke-opacity:1"
         d="m -17.196386,46.941892 -11.651315,11.84245"
         id="path1-7"
         sodipodi:nodetypes="cc" /><path
         style="fill:#853131;stroke:#000000;stroke-width:2;stroke-dasharray:none;stroke-opacity:1"
         d="M -4.3421784,59.210492 -17.0853,46.826811"
         id="path2"
         sodipodi:nodetypes="cc" /><path
         style="fill:#853131;stroke:#000000;stroke-width:2;stroke-dasharray:none;stroke-opacity:1"
         d="M -16.92681,21.451502 -30.268851,9.0273423"
         id="path3"
         sodipodi:nodetypes="cc" /><path
         style="fill:#853131;stroke:#000000;stroke-width:2;stroke-dasharray:none;stroke-opacity:1"
         d="M -5.4533684,9.1242423 -16.652552,21.292512"
         id="path4"
         sodipodi:nodetypes="cc" /><circle
         style="fill:#853131;fill-opacity:0;stroke:#000000;stroke-width:2;stroke-dasharray:none;stroke-opacity:1"
         id="path5"
         cx="-17.281506"
         cy="-0.067530341"
         r="8.3018751" /><g
         id="g22"
         transform="matrix(0.27989362,0,0,0.27989362,-91.015488,-37.864828)"><path
           style="fill:#853131;stroke:#000000;stroke-width:2;stroke-dasharray:none;stroke-opacity:1"
           d="m 252.03024,125.93246 -10.3228,10.19424"
           id="path21" /><path
           style="fill:#853131;stroke:#000000;stroke-width:2;stroke-dasharray:none;stroke-opacity:1"
           d="m 250.87064,126.63505 10.19424,10.3228"
           id="path22" /></g><g
         id="g24"
         transform="matrix(0.27989362,0,0,0.27989362,-84.608758,-37.864828)"><path
           style="fill:#853131;stroke:#000000;stroke-width:2;stroke-dasharray:none;stroke-opacity:1"
           d="m 252.03024,125.93246 -10.3228,10.19424"
           id="path23" /><path
           style="fill:#853131;stroke:#000000;stroke-width:2;stroke-dasharray:none;stroke-opacity:1"
           d="m 250.87064,126.63505 10.19424,10.3228"
           id="path24" /></g><g
         id="g26"
         transform="matrix(0.26458333,0,0,0.26458333,-90.745199,-27.638073)"><path
           d="m 193.48223,-387.22741 c 5.18073,14.20702 -12.33664,104.64398 5.0504,106.05839 14.20702,-5.18073 104.64399,12.33663 106.0584,-5.0504 -5.18073,-14.20702 12.33662,-104.64398 -5.0504,-106.05838 -14.20701,5.18072 -104.64399,-12.33662 -106.0584,5.05039 z m -15.28407,-20.84997 c 28.14447,9.16058 137.78175,-25.66543 141.54406,20.84997 v 101.00799 c -10.4031,39.98223 -90.93244,20.2016 -121.20959,20.2016 -43.04297,-13.88896 -20.29654,-107.26971 -20.33447,-142.05956 z m 59.09761,88.34042 c -11.69885,8.04193 -31.84098,-14.4605 -23.89602,-22.32094 2.96711,-2.93554 7.765,-2.96711 10.70055,0 l 5.66676,7.357 z"
           id="path1-6"
           style="fill:#1c5a78;fill-opacity:1;stroke-width:0.315651"
           sodipodi:nodetypes="ssssscsssccsccc" /><path
           d="m 532.16806,-6.5010113 c 5.18073,14.20702 -12.33664,104.6439803 5.0504,106.0583903 14.20702,-5.18073 104.64399,12.336631 106.0584,-5.0504 -5.18073,-14.20702 12.33662,-104.64398 -5.0504,-106.05838 -14.20701,5.1807197 -104.64399,-12.33662 -106.0584,5.0503897 z M 516.88399,-27.350981 c 28.14447,9.16058 137.78175,-25.66543 141.54406,20.8499697 V 94.506979 C 648.02495,134.48921 567.49561,114.70858 537.21846,114.70858 494.17549,100.81962 516.92192,7.4388687 516.88399,-27.350981 Z m 106.50692,56.51842 -40.4032,40.4032 c -11.69885,8.04193 -38.84709,-23.0417 -30.90213,-30.90214 2.96711,-2.93554 7.765,-2.96711 10.70055,0 l 14.83553,14.83556 c 10.02646,-4.71532 31.88537,-46.9650603 45.73769,-35.06872 2.93555,2.96711 2.96711,7.76499 0,10.70054 z"
           id="path26"
           style="fill:#1c5a78;fill-opacity:1;stroke-width:0.315651"
           sodipodi:nodetypes="ssssscsssccssccscc" /><path
           d="m 4.997555,-387.20238 c 5.18073,14.20702 -12.3366402,104.64398 5.0504,106.05839 14.20702,-5.18073 104.643985,12.33663 106.058395,-5.0504 -5.18073,-14.20702 12.33662,-104.64398 -5.0504,-106.05838 -14.20701,5.18072 -104.643985,-12.33662 -106.058395,5.05039 z m -15.28407,-20.84997 c 28.14447,9.16058 137.781745,-25.66543 141.544055,20.84997 v 101.00799 c -10.4031,39.98223 -90.932435,20.2016 -121.209585,20.2016 -43.04297,-13.88896 -20.29654,-107.26971 -20.33447,-142.05956 z"
           id="path27"
           style="fill:#1c5a78;fill-opacity:1;stroke-width:0.315651"
           sodipodi:nodetypes="ssssscsssc" /><path
           d="m 393.30388,-387.15011 c 5.18073,14.20702 -12.33664,104.64398 5.0504,106.05839 14.20702,-5.18073 104.64399,12.33663 106.0584,-5.0504 -5.18073,-14.20702 12.33662,-104.64398 -5.0504,-106.05838 -14.20701,5.18072 -104.64399,-12.33662 -106.0584,5.05039 z m -15.28407,-20.84997 c 28.14447,9.16058 137.78175,-25.66543 141.54406,20.84997 v 101.00799 c -10.4031,39.98223 -90.93244,20.2016 -121.20959,20.2016 -43.04297,-13.88896 -20.29654,-107.26971 -20.33447,-142.05956 z m 66.10372,96.92162 c -11.69885,8.04193 -38.84709,-23.0417 -30.90213,-30.90214 2.96711,-2.93554 7.765,-2.96711 10.70055,0 l 14.83553,14.83556 c 10.02646,-4.71532 2.75461,-7.26166 16.60693,4.63468 z"
           id="path29"
           style="fill:#1c5a78;fill-opacity:1;stroke-width:0.315651"
           sodipodi:nodetypes="ssssscsssccscccc" /><path
           d="m 789.38847,-387.25224 c 5.18073,14.20702 -12.33664,104.64398 5.0504,106.05839 14.20702,-5.18073 104.64399,12.33663 106.0584,-5.0504 -5.18073,-14.20702 12.33662,-104.64398 -5.0504,-106.05838 -14.20701,5.18072 -104.64399,-12.33662 -106.0584,5.05039 z m -15.28407,-20.84997 c 28.14447,9.16058 137.78175,-25.66543 141.54406,20.84997 v 101.00799 c -10.4031,39.98223 -90.93244,20.2016 -121.20959,20.2016 -43.04297,-13.88896 -20.29654,-107.26971 -20.33447,-142.05956 z m 106.50692,56.51842 -40.4032,40.4032 c -11.69885,8.04193 -38.84709,-23.0417 -30.90213,-30.90214 2.96711,-2.93554 7.765,-2.96711 10.70055,0 l 14.83553,14.83556 c 10.02646,-4.71532 31.88537,-46.96506 45.73769,-35.06872 2.93555,2.96711 2.96711,7.76499 0,10.70054 z"
           id="path30"
           style="fill:#1c5a78;fill-opacity:1;stroke-width:0.315651"
           sodipodi:nodetypes="ssssscsssccssccscc" /><path
           d="m 589.66527,-387.18206 c 5.18073,14.20702 -12.33664,104.64398 5.0504,106.05839 14.20702,-5.18073 104.64399,12.33663 106.0584,-5.0504 -5.18073,-14.20702 12.33662,-104.64398 -5.0504,-106.05838 -14.20701,5.18072 -104.64399,-12.33662 -106.0584,5.05039 z m -15.28407,-20.84997 c 28.14447,9.16058 137.78175,-25.66543 141.54406,20.84997 v 101.00799 c -10.4031,39.98223 -90.93244,20.2016 -121.20959,20.2016 -43.04297,-13.88896 -20.29654,-107.26971 -20.33447,-142.05956 z m 66.10372,96.92162 c -11.69885,8.04193 -38.84709,-23.0417 -30.90213,-30.90214 2.96711,-2.93554 7.765,-2.96711 10.70055,0 l 14.83553,14.83556 c 10.02646,-4.71532 21.49891,-24.69197 35.35123,-12.79563 z"
           id="path31"
           style="fill:#1c5a78;fill-opacity:1;stroke-width:0.315651"
           sodipodi:nodetypes="ssssscsssccscccc" /></g></g></g></svg>
