<?xml version="1.0" encoding="UTF-8" standalone="no"?>
<svg
   viewBox="0 0 512 512"
   version="1.1"
   id="svg1"
   sodipodi:docname="square-check-regular.svg"
   width="512"
   height="512"
   inkscape:version="1.3 (0e150ed6c4, 2023-07-21)"
   xmlns:inkscape="http://www.inkscape.org/namespaces/inkscape"
   xmlns:sodipodi="http://sodipodi.sourceforge.net/DTD/sodipodi-0.dtd"
   xmlns="http://www.w3.org/2000/svg"
   xmlns:svg="http://www.w3.org/2000/svg">
  <defs
     id="defs1" />
  <sodipodi:namedview
     id="namedview1"
     pagecolor="#ffffff"
     bordercolor="#000000"
     borderopacity="0.25"
     inkscape:showpageshadow="2"
     inkscape:pageopacity="0.0"
     inkscape:pagecheckerboard="0"
     inkscape:deskcolor="#d1d1d1"
     inkscape:zoom="1.013202"
     inkscape:cx="233.9119"
     inkscape:cy="301.02586"
     inkscape:window-width="1920"
     inkscape:window-height="1029"
     inkscape:window-x="0"
     inkscape:window-y="27"
     inkscape:window-maximized="1"
     inkscape:current-layer="svg1"
     showgrid="false" />
  <!--! Font Awesome Pro 6.4.2 by @fontawesome - https://fontawesome.com License - https://fontawesome.com/license (Commercial License) Copyright 2023 Fonticons, Inc. -->
  <path
     d="M 90.479195,96.754911 C 106.22917,139.94579 52.9745,414.88399 105.83295,419.18395 149.02384,403.43397 423.96206,456.68864 428.26202,403.83018 412.51205,360.6393 465.76669,85.701122 412.90826,81.401168 369.71739,97.151131 94.779159,43.896506 90.479195,96.754911 Z M 44.013924,33.368736 C 129.57619,61.217889 462.88545,-44.656972 474.32329,96.754911 V 403.83018 C 442.69672,525.38049 197.87877,465.24524 105.83295,465.24524 -25.022312,423.02129 44.129257,139.13367 44.013924,33.368736 Z M 367.80657,205.19087 244.97645,328.02099 c -35.56578,24.44833 -118.09938,-70.04928 -93.94585,-93.94586 9.02035,-8.92436 23.60644,-9.02034 32.53084,0 l 45.10164,45.10171 c 30.48151,-14.3351 96.93498,-142.77889 139.04755,-106.61271 8.92438,9.02032 9.02032,23.6064 0,32.53078 z"
     id="path1"
     style="fill:#1c5a78;fill-opacity:1;stroke-width:0.959612"
     sodipodi:nodetypes="ssssscsssccssccscc" />
  <path
     d="m 560.03409,385.36325 c -1.66755,0 -3.03192,1.36437 -3.03192,3.03191 v 60.63831 c 0,1.66756 1.36437,3.03193 3.03192,3.03193 h 60.63832 c 1.66755,0 3.03191,-1.36437 3.03191,-3.03193 v -60.63831 c 0,-1.66754 -1.36436,-3.03191 -3.03191,-3.03191 z m -12.12766,3.03191 c 0,-6.68915 5.4385,-12.12765 12.12766,-12.12765 h 60.63832 c 6.68916,0 12.12766,5.4385 12.12766,12.12765 v 60.63831 c 0,6.68917 -5.4385,12.12767 -12.12766,12.12767 h -60.63832 c -6.68916,0 -12.12766,-5.4385 -12.12766,-12.12767 z m 63.85973,21.41291 -24.25533,24.25533 c -1.78125,1.78125 -4.66157,1.78125 -6.42387,0 l -12.12767,-12.12767 c -1.78125,-1.78125 -1.78125,-4.66157 0,-6.42387 1.78125,-1.7623 4.66157,-1.78125 6.42388,0 l 8.90625,8.90626 21.03391,-21.05287 c 1.78125,-1.78125 4.66157,-1.78125 6.42387,0 1.7623,1.78125 1.78126,4.66157 0,6.42387 z"
     id="path1-5"
     style="fill:#1c5a78;fill-opacity:1;stroke-width:0.189495" />
  <path
     d="m 536.42671,148.36723 c -1.66755,0 -3.03192,1.36437 -3.03192,3.03191 v 60.63831 c 0,1.66756 1.36437,3.03193 3.03192,3.03193 h 60.63832 c 1.66755,0 3.03191,-1.36437 3.03191,-3.03193 v -60.63831 c 0,-1.66754 -1.36436,-3.03191 -3.03191,-3.03191 z m -12.12766,3.03191 c 0,-6.68915 5.4385,-12.12765 12.12766,-12.12765 h 60.63832 c 6.68916,0 12.12766,5.4385 12.12766,12.12765 v 60.63831 c 0,6.68917 -5.4385,12.12767 -12.12766,12.12767 h -60.63832 c -6.68916,0 -12.12766,-5.4385 -12.12766,-12.12767 z m 63.85973,21.41291 -24.25533,24.25533 c -1.78125,1.78125 -4.66157,1.78125 -6.42387,0 l -12.12767,-12.12767 c -1.78125,-1.78125 -1.78125,-4.66157 0,-6.42387 1.78125,-1.7623 4.66157,-1.78125 6.42388,0 l 8.90625,8.90626 21.03391,-21.05287 c 1.78125,-1.78125 4.66157,-1.78125 6.42387,0 1.7623,1.78125 1.78126,4.66157 0,6.42387 z"
     id="path1-5-2"
     style="fill:#1c5a78;fill-opacity:1;stroke-width:0.189495" />
  <path
     d="m 608.03114,39.325567 c -0.98598,0 -1.79269,0.80671 -1.79269,1.79268 v 35.8537 c 0,0.98598 0.80671,1.79269 1.79269,1.79269 h 35.8537 c 0.98598,0 1.79268,-0.80671 1.79268,-1.79269 v -35.8537 c 0,-0.98597 -0.8067,-1.79268 -1.79268,-1.79268 z m -7.17074,1.79268 c 0,-3.9551 3.21563,-7.17073 7.17074,-7.17073 h 35.8537 c 3.95511,0 7.17074,3.21563 7.17074,7.17073 v 35.8537 c 0,3.95511 -3.21563,7.17074 -7.17074,7.17074 h -35.8537 c -3.95511,0 -7.17074,-3.21563 -7.17074,-7.17074 z m 37.75843,12.66084 -14.34148,14.34148 c -1.0532,1.0532 -2.75625,1.0532 -3.79825,0 l -7.17075,-7.17074 c -1.0532,-1.0532 -1.0532,-2.75626 0,-3.79825 1.05321,-1.042 2.75626,-1.05321 3.79826,0 l 5.26601,5.26601 12.43675,-12.44796 c 1.0532,-1.0532 2.75625,-1.0532 3.79825,0 1.042,1.05321 1.05321,2.75626 0,3.79825 z"
     id="path2"
     style="fill:#1c5a78;fill-opacity:1;stroke-width:0.112043" />
  <path
     d="m 575.34631,281.2706 c -0.98598,0 -1.79269,0.80671 -1.79269,1.79268 v 35.8537 c 0,0.98598 0.80671,1.79269 1.79269,1.79269 h 35.8537 c 0.98598,0 1.79268,-0.80671 1.79268,-1.79269 v -35.8537 c 0,-0.98597 -0.8067,-1.79268 -1.79268,-1.79268 z m -7.17074,1.79268 c 0,-3.9551 3.21563,-7.17073 7.17074,-7.17073 h 35.8537 c 3.95511,0 7.17074,3.21563 7.17074,7.17073 v 35.8537 c 0,3.95511 -3.21563,7.17074 -7.17074,7.17074 h -35.8537 c -3.95511,0 -7.17074,-3.21563 -7.17074,-7.17074 z m 37.75843,12.66084 -14.34148,14.34148 c -1.0532,1.0532 -2.75625,1.0532 -3.79825,0 l -7.17075,-7.17074 c -1.0532,-1.0532 -1.0532,-2.75626 0,-3.79825 1.05321,-1.042 2.75626,-1.05321 3.79826,0 l 5.26601,5.26601 12.43675,-12.44796 c 1.0532,-1.0532 2.75625,-1.0532 3.79825,0 1.042,1.05321 1.05321,2.75626 0,3.79825 z"
     id="path3"
     style="fill:#1c5a78;fill-opacity:1;stroke-width:0.112043" />
  <path
     d="m 595.36495,510.01986 c -0.98598,0 -1.79269,0.80671 -1.79269,1.79268 v 35.8537 c 0,0.98598 0.80671,1.79269 1.79269,1.79269 h 35.8537 c 0.98598,0 1.79268,-0.80671 1.79268,-1.79269 v -35.8537 c 0,-0.98597 -0.8067,-1.79268 -1.79268,-1.79268 z m -7.17074,1.79268 c 0,-3.9551 3.21563,-7.17073 7.17074,-7.17073 h 35.8537 c 3.95511,0 7.17074,3.21563 7.17074,7.17073 v 35.8537 c 0,3.95511 -3.21563,7.17074 -7.17074,7.17074 h -35.8537 c -3.95511,0 -7.17074,-3.21563 -7.17074,-7.17074 z m 37.75843,12.66084 -14.34148,14.34148 c -1.0532,1.0532 -2.75625,1.0532 -3.79825,0 l -7.17075,-7.17074 c -1.0532,-1.0532 -1.0532,-2.75626 0,-3.79825 1.05321,-1.042 2.75626,-1.05321 3.79826,0 l 5.26601,5.26601 12.43675,-12.44796 c 1.0532,-1.0532 2.75625,-1.0532 3.79825,0 1.042,1.05321 1.05321,2.75626 0,3.79825 z"
     id="path4"
     style="fill:#1c5a78;fill-opacity:1;stroke-width:0.112043" />
  <path
     d="m 677.27752,226.28441 c -0.51795,0 -0.94174,0.42378 -0.94174,0.94173 v 18.83477 c 0,0.51795 0.42379,0.94174 0.94174,0.94174 h 18.83477 c 0.51796,0 0.94173,-0.42379 0.94173,-0.94174 v -18.83477 c 0,-0.51795 -0.42377,-0.94173 -0.94173,-0.94173 z m -3.76695,0.94173 c 0,-2.0777 1.68924,-3.76695 3.76695,-3.76695 h 18.83477 c 2.07771,0 3.76695,1.68925 3.76695,3.76695 v 18.83477 c 0,2.07771 -1.68924,3.76695 -3.76695,3.76695 h -18.83477 c -2.07771,0 -3.76695,-1.68924 -3.76695,-3.76695 z m 19.83536,6.65103 -7.5339,7.53391 c -0.55327,0.55327 -1.44792,0.55327 -1.99531,0 l -3.76696,-3.76696 c -0.55327,-0.55327 -0.55327,-1.44792 0,-1.99531 0.55328,-0.54738 1.44793,-0.55327 1.99531,0 l 2.76636,2.76636 6.53331,-6.5392 c 0.55327,-0.55327 1.44792,-0.55327 1.99531,0 0.54738,0.55328 0.55327,1.44793 0,1.99531 z"
     id="path5"
     style="fill:#1c5a78;fill-opacity:1;stroke-width:0.0588587" />
  <path
     d="m -289.96273,269.43497 c -4.04528,0 -7.35506,3.30977 -7.35506,7.35505 v 147.10119 c 0,4.04528 3.30978,7.35506 7.35506,7.35506 h 147.1012 c 4.04528,0 7.35506,-3.30978 7.35506,-7.35506 V 276.79002 c 0,-4.04528 -3.30978,-7.35505 -7.35506,-7.35505 z m -29.42024,7.35505 c 0,-16.2271 13.19314,-29.42023 29.42024,-29.42023 h 147.1012 c 16.22711,0 29.42023,13.19313 29.42023,29.42023 v 147.10119 c 0,16.22709 -13.19312,29.42024 -29.42023,29.42024 h -147.1012 c -16.2271,0 -29.42024,-13.19315 -29.42024,-29.42024 z m 154.91595,51.94511 -58.84048,58.84048 c -4.32109,4.32109 -11.30838,4.32109 -15.58351,0 l -29.42026,-29.42024 c -4.3211,-4.32111 -4.3211,-11.30841 0,-15.58354 4.32111,-4.27512 11.30842,-4.3211 15.58356,0 l 21.60547,21.6055 51.02571,-51.0717 c 4.3211,-4.32111 11.30842,-4.32111 15.58355,0 4.27513,4.32109 4.32109,11.3084 0,15.58353 z"
     id="path6"
     style="fill:#1c5a78;fill-opacity:1;stroke-width:0.459692" />
  <path
     d="m -359.92681,30.143309 c -4.04528,0 -7.35506,3.30977 -7.35506,7.35505 V 184.59955 c 0,4.04528 3.30978,7.35506 7.35506,7.35506 h 147.1012 c 4.04528,0 7.35506,-3.30978 7.35506,-7.35506 V 37.498359 c 0,-4.04528 -3.30978,-7.35505 -7.35506,-7.35505 z m -29.42024,7.35505 c 0,-16.2271 13.19314,-29.4202303 29.42024,-29.4202303 h 147.1012 c 16.22711,0 29.42023,13.1931303 29.42023,29.4202303 V 184.59955 c 0,16.22709 -13.19312,29.42024 -29.42023,29.42024 h -147.1012 c -16.2271,0 -29.42024,-13.19315 -29.42024,-29.42024 z m 154.91595,51.94511 -58.84048,58.840481 c -4.32109,4.32109 -11.30839,4.32109 -15.58352,0 l -29.42025,-29.42024 c -4.3211,-4.32111 -4.3211,-11.30841 0,-15.58354 4.3211,-4.275121 11.30841,-4.321101 15.58355,0 l 21.60547,21.6055 51.02572,-51.071701 c 4.3211,-4.32111 11.30842,-4.32111 15.58355,0 4.27513,4.32109 4.32109,11.3084 0,15.58353 z"
     id="path7"
     style="fill:#1c5a78;fill-opacity:1;stroke-width:0.459692" />
  <rect
     style="fill:#000000"
     id="rect7"
     width="54.436741"
     height="44.550293"
     x="-135.26978"
     y="-44.163982" />
  <rect
     style="fill:#853131;fill-opacity:1"
     id="rect8"
     width="38.309406"
     height="36.55146"
     x="-127.10938"
     y="-39.002594" />
</svg>
